<svg width="512" height="512" viewBox="0 0 512 512" fill="none" xmlns="http://www.w3.org/2000/svg">
<path d="M248.836 74.1022C256.002 62.5 244.547 49.5698 246.822 40.5C246.822 40.5 251.682 43 250.602 28.5C249.522 14 252.181 0 252.181 0C252.181 32.7092 281.425 29 270.043 74.1022C258.836 118.512 274.363 97.5823 274.363 143.573C274.363 192.5 298.907 158.06 286.968 192.5C281.07 209.513 287.565 204.5 286.968 247C297.826 257 291.079 279.033 286.968 301L286.757 302.128C282.004 327.51 278.453 346.473 286.968 378.5C290.424 391.5 280.441 421.364 274.363 454.5C269.503 481 261.943 481 265.694 512C248.836 490.001 259.783 471.173 259.783 454.5C259.783 433.659 245.952 421.553 241.381 403.5C235.05 378.5 238.207 379.5 230.58 337.5C222.953 295.5 223.147 323 219.239 278.5C214.799 227.936 238.609 267.459 223.147 211.5C206.796 152.324 238.801 189.308 235.59 143.573C232.379 97.8381 233.895 98.2901 248.836 74.1022Z" fill="#200F29"/>
<path d="M359.533 351.706C356.733 351.595 349.804 359.402 344.498 391.516C339.412 399.81 337.201 413.08 336.98 399.81C336.758 386.539 327.029 387.242 328.798 377.953C330.567 368.664 332.557 366.966 323.492 355.687C314.426 344.407 321.778 354.22 323.492 329.146C325.202 304.117 323.492 319.526 323.492 309.905C323.492 300.284 310.667 290.332 319.954 271.754C329.241 253.175 306.609 240.692 323.492 213.035C336.98 190.938 325.26 189.147 323.492 172.228C321.723 155.309 328.798 157.523 328.798 150.664C328.798 121.321 344.604 97.1613 341.909 108.479C337.663 126.313 336.98 127.342 350.468 141.375C362.676 154.077 357.764 152.655 355.774 161.944C353.784 171.233 350.468 203.334 357.764 213.035C365.567 223.409 358.207 215.141 359.533 246.989C360.86 278.837 365.061 244.294 365.061 280.711C365.061 285.767 360.918 291.762 359.533 297.111C357.829 303.693 358.74 309.573 357.764 314.881C357.096 318.517 362.242 318.669 359.156 329.987C354.305 347.772 358.911 346.921 359.533 351.706Z" fill="#200F29"/>
<path d="M402.987 310.1C401.617 310.041 397.875 319.147 401.552 329.423C399.065 333.896 397.983 341.052 397.875 333.896C397.767 326.739 393.008 327.118 393.873 322.109C394.739 317.099 398.307 313.912 393.873 307.829C389.439 301.746 388.675 309.494 389.513 295.972C390.35 282.474 391.278 290.599 391.278 285.41C391.278 280.222 389.331 274.193 393.873 264.174C398.416 254.155 383.02 248.084 391.278 233.169C397.875 221.252 394.739 219.404 393.873 210.279C393.008 201.155 395.231 203.123 395.981 199.5C400.783 176.293 387.358 171.475 395.981 176.326C404.556 181.149 401.444 184.387 408.041 191.955C414.013 198.805 408.041 200.606 407.068 205.615C406.095 210.625 401.035 227.937 404.604 233.169C408.421 238.763 400.903 232.986 401.552 250.161C401.796 256.629 400.292 254.473 407.068 264.174C408.629 266.409 405.281 270.991 404.604 273.875C403.77 277.425 408.041 273.875 404.604 285.41C402.581 292.199 406.114 292.563 404.604 298.667C402.231 308.258 402.683 307.52 402.987 310.1Z" fill="#200F29"/>
<path d="M108.674 201.45C110.044 201.51 113.786 192.404 110.108 182.128C112.596 177.655 113.677 170.498 113.786 177.655C113.894 184.811 118.652 184.433 117.787 189.442C116.922 194.452 113.353 197.639 117.787 203.722C122.222 209.805 122.985 202.057 122.147 215.579C121.311 229.077 120.383 220.952 120.383 226.14C120.383 231.329 122.33 237.358 117.787 247.377C113.245 257.396 128.64 263.466 120.383 278.382C113.786 290.299 116.922 292.147 117.787 301.272C118.652 310.396 116.429 308.428 115.68 312.051C110.878 335.257 124.303 340.076 115.68 335.225C107.104 330.401 110.217 327.164 103.619 319.596C97.6479 312.746 103.619 310.945 104.593 305.935C105.566 300.926 110.626 283.614 107.057 278.382C103.24 272.787 110.757 278.565 110.108 261.389C109.864 254.922 111.368 257.078 104.592 247.377C103.031 245.141 106.379 240.56 107.057 237.676C107.891 234.126 103.619 237.676 107.057 226.14C109.079 219.352 105.547 218.988 107.057 212.884C109.429 203.293 108.978 204.031 108.674 201.45Z" fill="#200F29"/>
<path d="M151.799 159.367C154.6 159.478 161.529 151.671 166.835 119.557C171.921 111.263 174.132 97.9933 174.353 111.263C174.574 124.533 184.303 123.831 182.535 133.12C180.766 142.409 178.776 144.107 187.841 155.386C196.907 166.666 189.555 156.853 187.841 181.926C186.131 206.956 187.841 191.547 187.841 201.168C187.841 210.789 200.666 220.741 191.379 239.319C182.092 257.897 204.724 270.38 187.841 298.038C174.353 320.135 186.072 321.925 187.841 338.845C189.61 355.764 182.535 353.549 182.535 360.409C182.535 389.752 166.729 413.912 169.424 402.594C173.67 384.76 174.353 383.731 160.865 369.698C148.657 356.996 153.568 358.418 155.558 349.129C157.548 339.84 160.865 307.739 153.568 298.038C145.765 287.664 153.126 295.932 151.799 264.084C150.473 232.236 146.272 266.779 146.272 230.362C146.272 225.306 150.414 219.311 151.8 213.962C153.504 207.38 152.592 201.5 153.568 196.192C154.237 192.556 149.09 192.404 152.177 181.086C157.028 163.301 152.422 164.152 151.799 159.367Z" fill="#200F29"/>
</svg>
