<svg width="12" height="12" viewBox="0 0 12 12" fill="none" xmlns="http://www.w3.org/2000/svg">
<g clip-path="url(#clip0_132_92)">
<path d="M11 6H11.5M6 1V0.5M6 11.5V11M10 10L9.5 9.5M10 2L9.5 2.5M2 10L2.5 9.5M2 2L2.5 2.5M0.5 6H1M6 9C6.79565 9 7.55871 8.68393 8.12132 8.12132C8.68393 7.55871 9 6.79565 9 6C9 5.20435 8.68393 4.44129 8.12132 3.87868C7.55871 3.31607 6.79565 3 6 3C5.20435 3 4.44129 3.31607 3.87868 3.87868C3.31607 4.44129 3 5.20435 3 6C3 6.79565 3.31607 7.55871 3.87868 8.12132C4.44129 8.68393 5.20435 9 6 9Z" stroke="#200F29" stroke-linecap="round" stroke-linejoin="round"/>
</g>
<defs>
<clipPath id="clip0_132_92">
<rect width="12" height="12" fill="white"/>
</clipPath>
</defs>
</svg>
